<svg version="1.0" xmlns="http://www.w3.org/2000/svg"
 width="250" height="250" viewBox="0 0 250 250"
 fill="currentColor" class="size-9">
<metadata>
Created by potrace 1.16, written by Peter Selinger 2001-2019
</metadata>
<g transform="translate(0,250) scale(0.025,-0.025)" stroke="none">
<path d="M4678 8939 c-692 -24 -1062 -142 -1441 -460 -250 -209 -446 -459
-682 -871 -59 -104 -112 -188 -118 -188 -21 0 -235 152 -319 227 -343 306
-409 363 -419 363 -6 0 -9 -4 -7 -8 324 -769 404 -928 617 -1216 l73 -99 19
-366 c25 -516 47 -690 98 -807 27 -60 62 -108 71 -97 4 4 38 122 74 262 184
706 299 964 536 1202 145 146 262 217 426 258 145 36 154 36 241 1 123 -49
160 -75 293 -206 124 -122 171 -154 228 -154 51 0 126 29 212 80 46 27 85 48
88 46 2 -3 -3 -49 -12 -103 -9 -54 -27 -182 -41 -284 -47 -355 -96 -446 -319
-594 -100 -67 -121 -76 -192 -90 -203 -38 -315 -46 -599 -43 -209 2 -294 -1
-335 -11 -126 -31 -224 -101 -318 -229 -49 -66 -172 -267 -172 -281 0 -4 71
-72 157 -152 640 -587 1025 -1053 1263 -1529 392 -783 651 -1745 761 -2829 9
-86 17 -125 27 -128 7 -3 17 -2 22 3 9 10 61 626 85 999 28 447 35 779 35
1695 l0 913 -36 66 c-100 182 -262 349 -414 426 -49 25 -160 59 -225 70 l-40
7 64 26 c142 57 179 140 206 462 21 245 91 509 192 720 40 85 56 106 149 197
57 56 113 104 124 108 27 8 69 -22 176 -129 68 -67 89 -97 127 -176 53 -111
108 -264 142 -399 32 -128 41 -187 60 -371 18 -176 28 -226 61 -292 29 -57 76
-96 149 -123 l55 -21 -97 -22 c-154 -35 -280 -109 -411 -241 -75 -76 -123
-141 -174 -237 l-43 -81 6 -1079 c4 -617 11 -1162 18 -1274 23 -399 87 -1210
96 -1237 4 -11 35 -19 35 -10 0 37 81 627 111 807 152 921 426 1739 783 2338
275 461 556 777 1274 1434 l62 57 -64 108 c-151 256 -268 364 -436 403 -38 9
-155 14 -385 14 -293 2 -346 4 -475 25 -155 25 -170 31 -306 122 -187 126
-251 237 -288 504 -10 66 -28 196 -42 289 -14 92 -23 170 -21 172 2 3 38 -15
78 -39 90 -53 178 -87 225 -87 60 0 126 43 215 140 100 108 183 167 303 216
90 37 90 37 160 24 106 -18 243 -65 312 -106 92 -54 197 -147 307 -269 86 -96
106 -126 161 -240 92 -189 164 -392 291 -825 20 -69 40 -136 44 -149 12 -42
29 -35 71 30 80 123 109 294 136 789 l16 304 76 100 c107 141 213 309 276 440
41 83 308 678 343 764 18 43 -47 -9 -367 -297 -141 -127 -354 -281 -387 -281
-6 0 -54 75 -108 168 -116 199 -258 415 -351 532 -83 105 -294 317 -390 393
-234 184 -491 302 -788 362 -178 35 -371 54 -683 65 -306 11 -403 11 -725 -1z"/>
<path d="M1916 5372 c-3 -4 23 -51 56 -103 195 -303 290 -516 328 -732 10 -60
20 -110 22 -111 1 -1 48 -22 103 -46 323 -144 599 -383 868 -753 350 -479 512
-935 658 -1844 14 -86 28 -143 34 -143 8 0 10 18 8 53 -1 28 -10 183 -18 342
-52 980 -138 1447 -350 1880 -187 385 -494 708 -981 1033 -182 121 -698 432
-717 432 -3 0 -8 -4 -11 -8z"/>
<path d="M8055 5277 c-648 -373 -988 -624 -1229 -907 -455 -533 -600 -1063
-666 -2425 -6 -121 -12 -239 -14 -263 -2 -27 1 -42 8 -42 7 0 22 64 40 173 79
488 178 887 283 1141 156 380 378 716 665 1007 206 210 405 344 669 452 35 14
36 17 43 78 23 209 133 461 334 768 58 87 73 121 54 121 -4 0 -88 -47 -187
-103z"/>
<path d="M2426 3888 c13 -95 21 -314 13 -388 -10 -108 -21 -142 -64 -215 -20
-32 -34 -63 -32 -68 2 -6 47 -21 101 -34 221 -53 318 -147 476 -463 87 -172
210 -450 210 -472 0 -10 4 -18 9 -18 28 0 25 449 -4 620 -48 276 -187 570
-365 769 -62 69 -324 301 -341 301 -4 0 -6 -15 -3 -32z"/>
<path d="M7598 3816 c-69 -58 -160 -142 -202 -188 -221 -237 -362 -561 -396
-907 -22 -222 -3 -593 23 -463 8 37 166 384 229 502 157 291 259 382 478 426
98 20 107 30 71 75 -70 90 -86 176 -78 428 3 108 9 204 12 214 13 33 -13 16
-137 -87z"/>
</g>
</svg>
